<svg width="191" height="180" viewBox="0 0 191 180" fill="none" xmlns="http://www.w3.org/2000/svg">
<path d="M73.9691 32.476C57.9945 35.4702 46.7661 46.9866 40.2836 67.0249C37.0424 76.929 35.4218 86.7178 35.4218 96.3916C35.4218 97.5432 35.4218 98.5797 35.4218 99.501C35.6533 100.192 35.8848 101.919 36.1164 104.683H73.9691V180H0V110.557C0 76.4683 6.8297 50.2111 20.4891 31.785C34.1485 13.3589 51.9752 2.76392 73.9691 0V32.476ZM191 32.476C178.267 34.5489 168.543 41.6891 161.829 53.8964C155.347 66.1036 152.105 80.1535 152.105 96.0461C152.105 97.428 152.105 98.81 152.105 100.192C152.337 101.574 152.684 103.071 153.147 104.683H191V180H116.684V110.557C116.684 83.1478 122.472 58.7332 134.047 37.3129C145.623 15.6622 164.607 3.22457 191 0V32.476Z" fill="#0174BB" fill-opacity="0.2"/>
</svg>
