<svg width="72" height="78" viewBox="0 0 72 78" fill="none" xmlns="http://www.w3.org/2000/svg">
<g clip-path="url(#clip0_130_788)">
<path d="M57.5524 33.9813C56.2557 33.9813 54.3757 31.7241 52.1662 31.7241C49.9567 31.7241 48.0646 33.9813 46.783 33.9813C45.5015 33.9813 43.6064 31.7241 41.3848 31.7241C39.1632 31.7241 37.2953 33.9813 35.9986 33.9813C34.7019 33.9813 32.8219 31.7241 30.6124 31.7241C28.4029 31.7241 26.5259 33.9813 25.2293 33.9813C23.9326 33.9813 22.0526 31.7241 19.8431 31.7241C17.6337 31.7241 15.7415 33.9813 14.46 33.9813C12.8701 33.9813 12.8701 36.3808 14.46 36.3808C16.4548 36.3808 18.0719 34.6175 19.4199 34.2176C20.1033 36.9718 21.4592 39.5125 23.3655 41.611C25.2718 43.7095 27.6687 45.2999 30.3405 46.2392C33.0123 47.1785 35.8753 47.4372 38.6716 46.9919C41.4679 46.5467 44.11 45.4115 46.3599 43.6885C47.0289 43.1819 47.6566 42.6227 48.2369 42.0161C50.356 39.8544 51.8553 37.1606 52.5772 34.2176C53.9253 34.6175 55.5545 36.3808 57.5524 36.3808C59.1271 36.3808 59.1271 33.9813 57.5524 33.9813ZM46.369 40.48L46.3175 40.5315C45.7028 41.1432 45.0342 41.6979 44.3197 42.1888C42.1182 43.7139 39.5411 44.6035 36.8696 44.7606C34.1981 44.9177 31.5349 44.3362 29.1707 43.0795H29.1555C28.3561 42.6633 27.5989 42.1701 26.8947 41.6071H26.8796C24.8104 39.9701 23.2287 37.7957 22.3065 35.3204C24.8998 36.911 26.0635 36.6444 28.5783 35.0811C30.561 33.8328 30.7092 33.8328 32.692 35.0811C35.4969 36.8322 36.5427 36.8322 39.3416 35.0811C41.3274 33.8328 41.4724 33.8328 43.4582 35.0811C45.9579 36.6444 47.1215 36.8989 49.727 35.3204C48.9874 37.2499 47.8551 39.004 46.4022 40.4709" fill="#0773BA"/>
<path d="M24.1802 4.10522C22.5652 5.68131 21.2815 7.56562 20.4047 9.64703C19.5279 11.7284 19.0759 13.9648 19.0752 16.2241V22.3502C19.3301 22.3211 19.5864 22.306 19.8429 22.3048C20.3514 22.3052 20.8582 22.3621 21.3542 22.4744V16.2362C21.3509 12.7333 22.6001 9.34524 24.8754 6.68655C24.6024 5.83856 24.3734 4.97696 24.1893 4.10522" fill="#0174BB"/>
<path d="M47.8316 4.09619C47.6475 4.96692 47.4185 5.8275 47.1455 6.67448C49.4275 9.33463 50.6804 12.7279 50.6759 16.2363V22.4836C51.1642 22.3746 51.6627 22.3187 52.163 22.3169C52.4256 22.3177 52.688 22.3339 52.9488 22.3654V16.2363C52.9492 13.9725 52.4965 11.7317 51.6176 9.64643C50.7386 7.56117 49.4512 5.67385 47.8316 4.09619Z" fill="#0174BB"/>
<path d="M32.7979 15.6697L32.6921 15.5364L32.5712 15.6697C32.4926 15.7606 31.7793 16.6362 31.7793 17.0876C31.7793 17.3287 31.8748 17.5598 32.0449 17.7303C32.2149 17.9007 32.4456 17.9965 32.6861 17.9965C32.9265 17.9965 33.1572 17.9007 33.3272 17.7303C33.4973 17.5598 33.5928 17.3287 33.5928 17.0876C33.5928 16.6362 32.8795 15.7606 32.8009 15.6697M32.6951 17.7117C32.53 17.7117 32.3716 17.646 32.2548 17.5289C32.138 17.4119 32.0725 17.2531 32.0725 17.0876C32.0725 16.8634 32.4171 16.3453 32.6951 15.9878C32.9581 16.3453 33.2996 16.8634 33.2996 17.0876C33.3021 17.1687 33.2882 17.2494 33.2589 17.3251C33.2296 17.4007 33.1855 17.4697 33.1291 17.5279C33.0727 17.5861 33.0052 17.6323 32.9307 17.6639C32.8561 17.6955 32.7761 17.7118 32.6951 17.7117Z" fill="#0174BB"/>
<path d="M40.6138 21.5413H37.1953C37.1747 21.5443 37.1536 21.5428 37.1336 21.537C37.1137 21.5311 37.0952 21.521 37.0795 21.5074C37.0637 21.4937 37.0511 21.4768 37.0424 21.4578C37.0338 21.4389 37.0293 21.4182 37.0293 21.3974C37.0293 21.3765 37.0338 21.3559 37.0424 21.3369C37.0511 21.3179 37.0637 21.301 37.0795 21.2874C37.0952 21.2737 37.1137 21.2636 37.1336 21.2578C37.1536 21.2519 37.1747 21.2505 37.1953 21.2535H40.6138C40.6483 21.2585 40.6798 21.2758 40.7026 21.3022C40.7254 21.3287 40.738 21.3624 40.738 21.3974C40.738 21.4323 40.7254 21.4661 40.7026 21.4925C40.6798 21.5189 40.6483 21.5363 40.6138 21.5413Z" fill="#0174BB"/>
<path d="M25.3076 15.6697L25.2019 15.5364L25.084 15.6697C25.0023 15.7606 24.2891 16.6362 24.2891 17.0876C24.2891 17.3287 24.3846 17.5598 24.5546 17.7303C24.7247 17.9007 24.9553 17.9965 25.1958 17.9965C25.4363 17.9965 25.667 17.9007 25.837 17.7303C26.0071 17.5598 26.1026 17.3287 26.1026 17.0876C26.1026 16.6362 25.3862 15.7606 25.3076 15.6697ZM25.2019 17.7117C25.0367 17.7117 24.8783 17.646 24.7616 17.5289C24.6448 17.4119 24.5792 17.2531 24.5792 17.0876C24.5792 16.8634 24.9238 16.3453 25.2019 15.9878C25.4679 16.3453 25.8064 16.8634 25.8064 17.0876C25.8088 17.1687 25.7949 17.2494 25.7657 17.3251C25.7364 17.4007 25.6922 17.4697 25.6359 17.5279C25.5795 17.5861 25.512 17.6323 25.4374 17.6639C25.3629 17.6955 25.2828 17.7118 25.2019 17.7117Z" fill="#0174BB"/>
<path d="M46.9128 15.6697L46.8071 15.5364L46.7013 15.6697C46.6106 15.7606 45.9094 16.6362 45.9094 17.0876C45.8928 17.2158 45.9036 17.346 45.9412 17.4697C45.9788 17.5933 46.0423 17.7075 46.1274 17.8046C46.2125 17.9017 46.3173 17.9795 46.4347 18.0327C46.5522 18.086 46.6796 18.1136 46.8086 18.1136C46.9375 18.1136 47.065 18.086 47.1825 18.0327C47.3 17.9795 47.4047 17.9017 47.4898 17.8046C47.5749 17.7075 47.6384 17.5933 47.676 17.4697C47.7136 17.346 47.7244 17.2158 47.7078 17.0876C47.7078 16.6362 46.9945 15.7606 46.9128 15.6697ZM46.8071 17.7117C46.6449 17.7078 46.4907 17.6402 46.3776 17.5235C46.2646 17.4067 46.2018 17.2502 46.2026 17.0876C46.2026 16.8634 46.5441 16.3453 46.8071 15.9878C47.0852 16.3453 47.4116 16.8634 47.4116 17.0876C47.414 17.1687 47.4002 17.2494 47.3709 17.3251C47.3416 17.4007 47.2975 17.4697 47.2411 17.5279C47.1847 17.5861 47.1173 17.6323 47.0427 17.6639C46.9682 17.6955 46.888 17.7118 46.8071 17.7117Z" fill="#0174BB"/>
<path d="M39.4259 15.6697L39.3201 15.5364L39.1992 15.6697C39.1206 15.7606 38.4194 16.6362 38.4194 17.0876C38.4194 17.3287 38.515 17.5598 38.685 17.7303C38.8551 17.9007 39.0857 17.9965 39.3262 17.9965C39.5667 17.9965 39.7973 17.9007 39.9674 17.7303C40.1374 17.5598 40.233 17.3287 40.233 17.0876C40.233 16.6362 39.5196 15.7606 39.441 15.6697M39.3353 17.7117C39.1701 17.7117 39.0117 17.646 38.895 17.5289C38.7782 17.4119 38.7126 17.2531 38.7126 17.0876C38.7126 16.8634 39.0572 16.3453 39.3353 15.9878C39.5982 16.3453 39.9398 16.8634 39.9398 17.0876C39.9422 17.1687 39.9283 17.2494 39.899 17.3251C39.8698 17.4007 39.8256 17.4697 39.7692 17.5279C39.7129 17.5861 39.6454 17.6323 39.5708 17.6639C39.4963 17.6955 39.4162 17.7118 39.3353 17.7117Z" fill="#0174BB"/>
<path d="M43.1618 19.7234L43.056 19.5901L42.9351 19.7234C42.8565 19.8294 42.1553 20.6899 42.1553 21.1565C42.1553 21.3975 42.2508 21.6287 42.4209 21.7992C42.5909 21.9696 42.8215 22.0654 43.062 22.0654C43.3025 22.0654 43.5332 21.9696 43.7032 21.7992C43.8733 21.6287 43.9688 21.3975 43.9688 21.1565C43.9688 20.6899 43.2555 19.8294 43.1769 19.7234M43.0711 21.7775C42.9088 21.7784 42.7528 21.7154 42.6363 21.6021C42.5199 21.4888 42.4524 21.3342 42.4485 21.1716C42.4485 20.9323 42.793 20.4142 43.0711 20.0688C43.3462 20.4142 43.6756 20.9323 43.6756 21.1716C43.6756 21.3323 43.612 21.4864 43.4986 21.6001C43.3852 21.7137 43.2314 21.7775 43.0711 21.7775Z" fill="#0174BB"/>
<path d="M29.0528 19.7234L28.947 19.5901L28.8261 19.7234C28.7475 19.8294 28.0342 20.6899 28.0342 21.1565C28.0342 21.3975 28.1297 21.6287 28.2998 21.7992C28.4698 21.9696 28.7005 22.0654 28.9409 22.0654C29.1814 22.0654 29.4121 21.9696 29.5821 21.7992C29.7522 21.6287 29.8477 21.3975 29.8477 21.1565C29.8477 20.6899 29.1314 19.8294 29.0528 19.7234ZM28.947 21.7775C28.7847 21.7784 28.6286 21.7154 28.5122 21.6021C28.3958 21.4888 28.3283 21.3342 28.3243 21.1716C28.3243 20.9323 28.6689 20.4142 28.947 20.0688C29.21 20.4142 29.5515 20.9323 29.5515 21.1716C29.5515 21.3323 29.4878 21.4864 29.3745 21.6001C29.2611 21.7137 29.1073 21.7775 28.947 21.7775Z" fill="#0174BB"/>
<path d="M30.407 19.1509H26.9885C26.9484 19.1509 26.91 19.1349 26.8817 19.1065C26.8533 19.0781 26.8374 19.0396 26.8374 18.9994C26.8374 18.9592 26.8533 18.9207 26.8817 18.8923C26.91 18.8639 26.9484 18.8479 26.9885 18.8479H30.407C30.4471 18.8479 30.4856 18.8639 30.5139 18.8923C30.5422 18.9207 30.5582 18.9592 30.5582 18.9994C30.5582 19.0396 30.5422 19.0781 30.5139 19.1065C30.4856 19.1349 30.4471 19.1509 30.407 19.1509Z" fill="#0174BB"/>
<path d="M31.407 18.239H27.9885C27.9484 18.239 27.91 18.223 27.8817 18.1946C27.8533 18.1662 27.8374 18.1277 27.8374 18.0875C27.8374 18.0473 27.8533 18.0088 27.8817 17.9804C27.91 17.952 27.9484 17.936 27.9885 17.936H31.407C31.4471 17.936 31.4856 17.952 31.5139 17.9804C31.5422 18.0088 31.5582 18.0473 31.5582 18.0875C31.5582 18.1277 31.5422 18.1662 31.5139 18.1946C31.4856 18.223 31.4471 18.239 31.407 18.239Z" fill="#0174BB"/>
<path d="M33.807 21.5413H30.3915C30.3709 21.5443 30.3499 21.5428 30.3299 21.537C30.3099 21.5311 30.2915 21.521 30.2758 21.5074C30.26 21.4937 30.2474 21.4768 30.2387 21.4578C30.2301 21.4389 30.2256 21.4182 30.2256 21.3974C30.2256 21.3765 30.2301 21.3559 30.2387 21.3369C30.2474 21.3179 30.26 21.301 30.2758 21.2874C30.2915 21.2737 30.3099 21.2636 30.3299 21.2578C30.3499 21.2519 30.3709 21.2505 30.3915 21.2535H33.807C33.8276 21.2505 33.8486 21.2519 33.8686 21.2578C33.8886 21.2636 33.9071 21.2737 33.9228 21.2874C33.9386 21.301 33.9512 21.3179 33.9599 21.3369C33.9685 21.3559 33.973 21.3765 33.973 21.3974C33.973 21.4182 33.9685 21.4389 33.9599 21.4578C33.9512 21.4768 33.9386 21.4937 33.9228 21.5074C33.9071 21.521 33.8886 21.5311 33.8686 21.537C33.8486 21.5428 33.8276 21.5443 33.807 21.5413Z" fill="#0174BB"/>
<path d="M34.8109 20.6262H31.3923C31.3523 20.6262 31.3138 20.6103 31.2855 20.5818C31.2571 20.5534 31.2412 20.5149 31.2412 20.4747C31.2412 20.4346 31.2571 20.396 31.2855 20.3676C31.3138 20.3392 31.3523 20.3232 31.3923 20.3232H34.8109C34.8509 20.3232 34.8894 20.3392 34.9177 20.3676C34.946 20.396 34.962 20.4346 34.962 20.4747C34.962 20.5149 34.946 20.5534 34.9177 20.5818C34.8894 20.6103 34.8509 20.6262 34.8109 20.6262Z" fill="#0174BB"/>
<path d="M41.6145 20.6262H38.196C38.156 20.6262 38.1175 20.6103 38.0892 20.5818C38.0609 20.5534 38.0449 20.5149 38.0449 20.4747C38.0449 20.4346 38.0609 20.396 38.0892 20.3676C38.1175 20.3392 38.156 20.3232 38.196 20.3232H41.6145C41.6546 20.3232 41.6931 20.3392 41.7214 20.3676C41.7498 20.396 41.7656 20.4346 41.7656 20.4747C41.7656 20.5149 41.7498 20.5534 41.7214 20.5818C41.6931 20.6103 41.6546 20.6262 41.6145 20.6262Z" fill="#0174BB"/>
<path d="M37.2108 19.1509H33.7922C33.7522 19.1509 33.7137 19.1349 33.6854 19.1065C33.657 19.0781 33.6411 19.0396 33.6411 18.9994C33.6411 18.9592 33.657 18.9207 33.6854 18.8923C33.7137 18.8639 33.7522 18.8479 33.7922 18.8479H37.2108C37.2508 18.8479 37.2893 18.8639 37.3176 18.8923C37.3459 18.9207 37.3619 18.9592 37.3619 18.9994C37.3619 19.0396 37.3459 19.0781 37.3176 19.1065C37.2893 19.1349 37.2508 19.1509 37.2108 19.1509Z" fill="#0174BB"/>
<path d="M38.2111 18.239H34.7957C34.7556 18.239 34.7171 18.223 34.6888 18.1946C34.6605 18.1662 34.6445 18.1277 34.6445 18.0875C34.6445 18.0473 34.6605 18.0088 34.6888 17.9804C34.7171 17.952 34.7556 17.936 34.7957 17.936H38.2111C38.2512 17.936 38.2897 17.952 38.318 17.9804C38.3463 18.0088 38.3623 18.0473 38.3623 18.0875C38.3623 18.1277 38.3463 18.1662 38.318 18.1946C38.2897 18.223 38.2512 18.239 38.2111 18.239Z" fill="#0174BB"/>
<path d="M44.0144 19.1509H40.5989C40.5588 19.1509 40.5204 19.1349 40.492 19.1065C40.4637 19.0781 40.4478 19.0396 40.4478 18.9994C40.4478 18.9592 40.4637 18.9207 40.492 18.8923C40.5204 18.8639 40.5588 18.8479 40.5989 18.8479H44.0144C44.0545 18.8479 44.0929 18.8639 44.1212 18.8923C44.1496 18.9207 44.1655 18.9592 44.1655 18.9994C44.1655 19.0396 44.1496 19.0781 44.1212 19.1065C44.0929 19.1349 44.0545 19.1509 44.0144 19.1509Z" fill="#0174BB"/>
<path d="M45.0178 18.239H41.5994C41.5593 18.239 41.5209 18.223 41.4925 18.1946C41.4642 18.1662 41.4482 18.1277 41.4482 18.0875C41.4482 18.0473 41.4642 18.0088 41.4925 17.9804C41.5209 17.952 41.5593 17.936 41.5994 17.936H45.0178C45.0579 17.936 45.0964 17.952 45.1247 17.9804C45.1531 18.0088 45.1689 18.0473 45.1689 18.0875C45.1689 18.1277 45.1531 18.1662 45.1247 18.1946C45.0964 18.223 45.0579 18.239 45.0178 18.239Z" fill="#0174BB"/>
<path d="M45.5227 13.5944C45.488 13.5947 45.4545 13.5817 45.429 13.5581C45.4041 13.5326 45.3901 13.4983 45.3901 13.4626C45.3901 13.4269 45.4041 13.3927 45.429 13.3672L46.5172 12.2765C46.5421 12.2517 46.5757 12.2378 46.6108 12.2378C46.6459 12.2378 46.6796 12.2517 46.7045 12.2765C46.7175 12.2884 46.728 12.3029 46.7351 12.3191C46.7422 12.3353 46.7459 12.3527 46.7459 12.3704C46.7459 12.3881 46.7422 12.4056 46.7351 12.4217C46.728 12.4379 46.7175 12.4524 46.7045 12.4643L45.6165 13.5581C45.591 13.5817 45.5575 13.5947 45.5227 13.5944Z" fill="#75BF43"/>
<path d="M26.4774 13.6064C26.4599 13.6071 26.4424 13.6039 26.4262 13.5971C26.41 13.5903 26.3955 13.58 26.3837 13.567L25.2925 12.4763C25.2678 12.4514 25.2539 12.4176 25.2539 12.3824C25.2539 12.3472 25.2678 12.3135 25.2925 12.2885C25.3179 12.2635 25.3522 12.2495 25.3878 12.2495C25.4234 12.2495 25.4575 12.2635 25.483 12.2885L26.5711 13.3792C26.5958 13.4042 26.6097 13.4379 26.6097 13.4731C26.6097 13.5083 26.5958 13.5421 26.5711 13.567C26.5589 13.5796 26.5443 13.5895 26.5282 13.5963C26.5121 13.603 26.4948 13.6065 26.4774 13.6064Z" fill="#75BF43"/>
<path d="M36.0046 13.3398H23.585V13.6065H36.0046V13.3398Z" fill="#75BF43"/>
<path d="M48.424 13.3398H36.0044V13.6065H48.424V13.3398Z" fill="#75BF43"/>
<path d="M33.8284 8.19838C33.7653 7.89139 33.6442 7.59932 33.4716 7.33794C33.3709 7.18557 33.2556 7.0435 33.1271 6.91378C31.6158 5.39892 27.4356 4.60816 27.2664 4.56877L27.0669 4.5415L27.1062 4.72632C27.1334 4.89901 27.9253 9.077 29.4486 10.6009C29.5773 10.7306 29.7191 10.8463 29.8718 10.9463C30.1346 11.1175 30.4266 11.2387 30.7332 11.3038C30.9788 11.3683 31.2321 11.3989 31.4859 11.3947C31.6679 11.3946 31.8497 11.3815 32.0299 11.3553C32.4725 11.2943 32.9041 11.1698 33.3114 10.9857H33.3266L33.4052 10.9463L33.4445 10.9191L33.4716 10.8918C33.4824 10.8596 33.4956 10.8282 33.511 10.7979C33.6977 10.3852 33.8229 9.94728 33.8827 9.49813C33.9508 9.0706 33.9323 8.63373 33.8284 8.21353M32.3321 9.61932L31.1231 8.40743V5.98365C31.5425 6.15814 31.9469 6.36689 32.3321 6.60777V9.61932ZM30.8511 8.13475L29.3973 6.67443V5.36256C29.8718 5.50799 30.3766 5.66553 30.8511 5.87761V8.13475ZM29.1313 5.28076V6.40781L27.6351 4.91113C27.9948 4.9899 28.5238 5.10806 29.1313 5.28076ZM28.9741 6.61989H27.8225C27.6502 6.01395 27.5203 5.45345 27.4508 5.10503L28.9741 6.61989ZM29.2371 6.88651L30.6788 8.33169H28.418C28.2221 7.86009 28.0536 7.37757 27.9132 6.88651H29.2371ZM30.9448 8.5983L32.1085 9.77686H29.1313C28.8986 9.40089 28.6965 9.00677 28.5268 8.5983H30.9448ZM31.9755 11.0918C31.5565 11.175 31.1237 11.1557 30.7138 11.0355C30.3039 10.9152 29.929 10.6976 29.6209 10.401C29.5102 10.2907 29.4091 10.1711 29.3187 10.0435H32.3775L33.118 10.7858C32.7504 10.9281 32.3682 11.0297 31.9785 11.0887M33.6197 9.45571C33.5644 9.84709 33.463 10.2305 33.3175 10.5979L32.6042 9.87987V6.79259C32.7107 6.87904 32.8117 6.97214 32.9065 7.07132C33.2059 7.38051 33.4261 7.75783 33.5482 8.17099C33.6704 8.58414 33.6907 9.02081 33.6076 9.44359" fill="#75BF43"/>
<path d="M33.3115 10.5858C33.2853 10.6228 33.263 10.6624 33.245 10.704C33.2039 10.7302 33.1604 10.7525 33.1151 10.7707L32.3746 10.0284H29.3157C29.2468 9.94497 29.1851 9.85577 29.1314 9.76176H32.1086L30.9449 8.5832H28.5269C28.4852 8.49705 28.4498 8.40794 28.4211 8.31659H30.6819L29.2402 6.87141H27.9163C27.8948 6.7798 27.8644 6.69051 27.8256 6.60479H28.9773L27.466 5.08993C27.4444 5.01118 27.4272 4.93127 27.4146 4.85059C27.478 4.85059 27.5596 4.87785 27.6503 4.90512L29.1465 6.4018V5.27475L29.4125 5.35655V6.66842L30.8663 8.12571V5.8716C30.9578 5.89957 31.0467 5.93504 31.1323 5.97764V8.40142L32.3413 9.61331V6.58056C32.435 6.64721 32.5287 6.71387 32.6073 6.78052V9.85568L33.3115 10.5858Z" fill="white"/>
<path d="M44.7579 4.53842C44.5857 4.57781 40.4175 5.35948 38.8972 6.88343C38.767 7.01157 38.6515 7.15383 38.5527 7.30759H38.5375C38.5375 7.30759 38.5375 7.30759 38.5375 7.33485C38.369 7.58819 38.2519 7.87234 38.193 8.17106C38.0886 8.59125 38.071 9.02843 38.1416 9.45566C38.2007 9.90458 38.325 10.3424 38.5104 10.7554C38.5258 10.7857 38.5389 10.8171 38.5496 10.8493L38.5769 10.8766L38.6161 10.9008L38.6977 10.9433C39.11 11.1282 39.5467 11.2526 39.9944 11.3129C40.1695 11.3396 40.3463 11.3527 40.5234 11.3523C40.7732 11.3566 41.0224 11.326 41.2639 11.2614H41.279C41.279 11.2614 41.279 11.2462 41.3032 11.2462C41.5968 11.1848 41.8758 11.0676 42.1253 10.9008C42.2898 10.8011 42.4412 10.681 42.5757 10.5433C44.087 9.02847 44.8909 4.84139 44.9151 4.6687L44.9574 4.48389L44.7579 4.53842ZM42.8658 5.26556C43.4703 5.09286 44.0174 4.96258 44.3771 4.89593L42.8658 6.41079V5.26556ZM42.5878 6.68649L41.1581 8.11652V5.86241C41.6252 5.66893 42.1025 5.50103 42.5878 5.35948V6.68649ZM40.88 8.39526L39.7043 9.57685V6.58045C40.0759 6.34122 40.4696 6.1383 40.88 5.97451V8.39526ZM39.0937 7.07127C39.1992 6.9601 39.3145 6.85869 39.4382 6.7683V9.83437L38.7098 10.5615C38.4741 10.0192 37.8907 8.26801 39.0937 7.06218M42.3882 10.3767C41.7837 10.9826 41.0009 11.1977 40.0337 11.0675C39.6453 11.0068 39.2643 10.9053 38.8972 10.7645L39.6105 10.0495H42.6664C42.5806 10.1652 42.4877 10.2755 42.3882 10.3797M42.8537 9.77378H39.8765L41.0855 8.56189H43.5035C43.3277 8.98365 43.1153 9.38917 42.8689 9.77378M43.6215 8.28922H41.3485L42.7933 6.84404H44.1141C43.969 7.30759 43.7968 7.81052 43.6124 8.28922M44.1957 6.57742H43.0562L44.5675 5.06256C44.501 5.42007 44.371 5.95027 44.1987 6.57742" fill="#75BF43"/>
<path d="M44.5584 5.08095L43.0471 6.59581H44.1866C44.1594 6.67458 44.1322 6.7685 44.105 6.86242H42.7842L41.3424 8.3076H43.6032C43.564 8.39849 43.5247 8.48029 43.4854 8.57118H41.0674L39.8584 9.78307H42.8597C42.8042 9.87667 42.7415 9.96581 42.6723 10.0497H39.6165L38.9032 10.7647L38.7702 10.698L38.7158 10.5647L39.4442 9.83761V6.77759C39.5228 6.71094 39.6165 6.64731 39.7102 6.58066V9.57705L40.886 8.39546V5.97168C40.9761 5.92549 41.0689 5.88502 41.164 5.85049V8.10461L42.5938 6.67458V5.36877C42.6882 5.34293 42.781 5.31157 42.8718 5.27485V6.41705L44.3831 4.90219C44.4768 4.87492 44.5554 4.8628 44.6219 4.84766C44.6068 4.91431 44.5946 4.99308 44.5674 5.087" fill="white"/>
<path d="M36.1164 0.942212L36.0107 0.784668L35.8927 0.942212C35.7991 1.10279 33.4052 4.60212 33.4052 6.76534C33.4017 6.94864 33.42 7.13171 33.4596 7.31069C33.5128 7.62063 33.6347 7.91466 33.8163 8.17113C34.037 8.54029 34.33 8.86081 34.6777 9.11337C35.0391 9.38406 35.4345 9.60611 35.8535 9.77385L35.9471 9.80112H35.9986H36.0409L36.1315 9.77385C36.5513 9.60569 36.9475 9.38368 37.3103 9.11337C37.6571 8.86075 37.9492 8.5402 38.1687 8.17113C38.3445 7.92172 38.4623 7.63598 38.5133 7.33492C38.5133 7.31977 38.5133 7.31978 38.5133 7.30766H38.5284C38.5655 7.12832 38.5828 6.94543 38.5798 6.76231C38.5798 4.59909 36.186 1.09976 36.0923 0.939182M36.1194 6.39268L37.8151 4.69604C37.995 5.11314 38.1317 5.54766 38.2231 5.99276L36.1073 8.11356L36.1194 6.39268ZM36.1194 6.00791V3.98102L37.0262 3.0509C37.2785 3.49737 37.5035 3.95873 37.7002 4.43245L36.1194 6.00791ZM36.1194 3.58413V1.46029C36.3038 1.76327 36.597 2.24196 36.9144 2.79943L36.1194 3.58413ZM35.8414 1.46332V3.58413L35.0494 2.79034C35.3668 2.23287 35.654 1.7663 35.8414 1.46332ZM34.9165 3.04181L35.8414 3.9689V6.01094L34.2425 4.40821C34.454 3.92952 34.6898 3.46597 34.9165 3.04181ZM34.1487 4.68695L35.8414 6.39571V8.09538L33.7256 5.97458C33.8197 5.53768 33.9574 5.11137 34.1366 4.7021M33.6349 6.75625C33.6351 6.60492 33.6483 6.45389 33.6742 6.30482L35.8293 8.45289V9.50117C35.2731 9.26183 33.6349 8.44077 33.6349 6.75625ZM37.126 8.91947C36.8112 9.15406 36.4691 9.34939 36.1073 9.50117V8.49228L38.2655 6.33209C38.29 6.47218 38.3031 6.61403 38.3047 6.75625C38.2964 7.1853 38.185 7.60599 37.9798 7.9826C37.7745 8.35921 37.4816 8.6806 37.126 8.91947Z" fill="#75BF43"/>
<path d="M38.3017 6.34109L36.1436 8.50128V9.51018C36.1103 9.52799 36.0747 9.54123 36.0378 9.54957C36.0378 9.54957 36.0378 9.54957 36.0106 9.54957C35.9834 9.54957 35.9864 9.54957 35.9713 9.54957L35.8656 9.51018V8.4619L33.7104 6.31383C33.7211 6.20283 33.7382 6.09256 33.7618 5.98359L35.8776 8.10439V6.43199L34.185 4.72322C34.2122 4.6293 34.2515 4.53538 34.2787 4.44449L35.8776 6.04721V3.99306L34.9527 3.06597C35.0041 2.97205 35.0434 2.89327 35.0857 2.8145L35.8776 3.60829V1.48748C35.932 1.39356 35.9834 1.31479 36.0227 1.26025C36.062 1.31479 36.1043 1.38144 36.1557 1.46021V3.59617L36.9506 2.79935C36.9899 2.87812 37.0292 2.95993 37.0685 3.05082L36.1618 3.98094V6.02298L37.7486 4.43237C37.7922 4.52188 37.8276 4.61518 37.8543 4.71111L36.1618 6.40775V8.13166L38.2775 6.01086C38.3077 6.11964 38.3259 6.23138 38.3319 6.34412" fill="white"/>
<path d="M36.1042 13.3853L36.0135 13.4762L35.9319 13.5428L35.9077 13.5701L35.6811 13.3429L33.3265 10.9706H33.3144L33.26 10.9039L33.1149 10.7706L32.1084 9.76476L30.9447 8.58317L28.974 6.60779L27.4507 5.08081L27.1333 4.76269L27.3207 4.57788L29.1312 6.39571L29.3972 6.6593L30.851 8.11962L32.5981 9.8708L33.3144 10.5858L33.4444 10.7191L33.5109 10.7858L35.8685 13.1459L36.0135 13.2914L36.0649 13.3429L36.1042 13.3853Z" fill="#75BF43"/>
<path d="M29.3974 5.1748V6.87145H27.729V6.60786H29.1315V5.1748H29.3974Z" fill="#75BF43"/>
<path d="M31.117 5.77148V8.58307H28.3242V8.31645H30.8511V5.77148H31.117Z" fill="#75BF43"/>
<path d="M32.5983 6.52588V10.0282H29.0649V9.76465H32.3353V6.52588H32.5983Z" fill="#75BF43"/>
<path d="M44.8756 4.76269L44.5582 5.08081L43.05 6.59265L41.0793 8.57105L39.8763 9.789L38.897 10.7706L38.7519 10.9039L38.6975 10.9706H38.6854L36.3309 13.3429L36.1042 13.5701L36.0135 13.4762L35.9077 13.3853L35.947 13.3429L36.0135 13.2914L36.1435 13.1459L38.5011 10.7858L38.5645 10.7191L38.7126 10.5737L39.438 9.84354L39.704 9.57692L40.8798 8.39836L41.1579 8.11962L42.5875 6.68657L42.8656 6.40783L44.6912 4.57788L44.8756 4.76269Z" fill="#75BF43"/>
<path d="M44.28 6.59271V6.85933H42.5874V5.1748H42.8655V6.59271H44.28Z" fill="#75BF43"/>
<path d="M43.6877 8.30433V8.57095H40.8828V5.77148H41.1609V8.30433H43.6877Z" fill="#75BF43"/>
<path d="M42.932 9.78904V10.0557H39.438V6.51392H39.704V9.78904H42.932Z" fill="#75BF43"/>
<path d="M36.0046 16.7877C35.9694 16.7877 35.9355 16.7736 35.9105 16.7486C35.8856 16.7236 35.8716 16.6897 35.8716 16.6544V13.4732C35.8716 13.4378 35.8856 13.4039 35.9105 13.3789C35.9355 13.3539 35.9694 13.3398 36.0046 13.3398C36.0399 13.3398 36.0737 13.3539 36.0986 13.3789C36.1236 13.4039 36.1376 13.4378 36.1376 13.4732V16.6544C36.138 16.672 36.1348 16.6895 36.1283 16.7059C36.1218 16.7222 36.112 16.7371 36.0996 16.7495C36.0872 16.762 36.0723 16.7718 36.056 16.7784C36.0397 16.7849 36.0222 16.7881 36.0046 16.7877Z" fill="#75BF43"/>
<path d="M36.0044 13.6066C35.9869 13.6066 35.9696 13.6032 35.9535 13.5964C35.9374 13.5896 35.9228 13.5797 35.9107 13.5672C35.8859 13.5422 35.8721 13.5084 35.8721 13.4732C35.8721 13.4381 35.8859 13.4043 35.9107 13.3793L38.5675 10.7162C38.5924 10.6914 38.6261 10.6775 38.6612 10.6775C38.6963 10.6775 38.7299 10.6914 38.7549 10.7162C38.7679 10.7281 38.7783 10.7426 38.7854 10.7588C38.7925 10.775 38.7962 10.7924 38.7962 10.8101C38.7962 10.8278 38.7925 10.8453 38.7854 10.8614C38.7783 10.8776 38.7679 10.8921 38.7549 10.904L36.098 13.5672C36.086 13.5798 36.0714 13.5899 36.0553 13.5967C36.0392 13.6034 36.0219 13.6068 36.0044 13.6066Z" fill="#75BF43"/>
<path d="M36.0046 13.57C35.9694 13.57 35.9355 13.556 35.9105 13.531C35.8856 13.506 35.8716 13.4721 35.8716 13.4367V9.66773C35.8716 9.63238 35.8856 9.59847 35.9105 9.57347C35.9355 9.54847 35.9694 9.53442 36.0046 9.53442C36.0399 9.53442 36.0737 9.54847 36.0986 9.57347C36.1236 9.59847 36.1376 9.63238 36.1376 9.66773V13.4367C36.1376 13.4721 36.1236 13.506 36.0986 13.531C36.0737 13.556 36.0399 13.57 36.0046 13.57Z" fill="#75BF43"/>
<path d="M36.0044 13.6065C35.9869 13.6065 35.9696 13.6031 35.9535 13.5963C35.9374 13.5896 35.9228 13.5796 35.9106 13.5671L33.2538 10.9039C33.2397 10.892 33.2283 10.8773 33.2202 10.8608C33.212 10.8442 33.2074 10.8261 33.2067 10.8077C33.2059 10.7892 33.2089 10.7708 33.2156 10.7536C33.2223 10.7364 33.2325 10.7208 33.2455 10.7077C33.2585 10.6947 33.2741 10.6845 33.2912 10.6778C33.3084 10.6711 33.3268 10.668 33.3452 10.6688C33.3636 10.6696 33.3816 10.6742 33.3982 10.6824C33.4147 10.6905 33.4294 10.702 33.4413 10.7161L36.098 13.3792C36.111 13.3912 36.1214 13.4057 36.1286 13.4218C36.1357 13.438 36.1393 13.4555 36.1393 13.4731C36.1393 13.4908 36.1357 13.5083 36.1286 13.5245C36.1214 13.5406 36.111 13.5551 36.098 13.5671C36.0859 13.5797 36.0714 13.5898 36.0553 13.5966C36.0392 13.6033 36.0218 13.6067 36.0044 13.6065Z" fill="#75BF43"/>
<path d="M39.7618 13.6065H32.2477C32.2124 13.6065 32.1786 13.5924 32.1537 13.5674C32.1288 13.5424 32.1147 13.5085 32.1147 13.4732C32.1147 13.4378 32.1288 13.4039 32.1537 13.3789C32.1786 13.3539 32.2124 13.3398 32.2477 13.3398H39.7618C39.7971 13.3398 39.8309 13.3539 39.8558 13.3789C39.8807 13.4039 39.8948 13.4378 39.8948 13.4732C39.8948 13.5085 39.8807 13.5424 39.8558 13.5674C39.8309 13.5924 39.7971 13.6065 39.7618 13.6065Z" fill="#75BF43"/>
<path d="M48.4878 13.358C47.413 12.6255 46.2702 11.9985 45.0753 11.4857C45.0641 11.472 45.0497 11.4612 45.0333 11.4544C45.017 11.4475 44.9992 11.4447 44.9816 11.4463C44.4974 11.2276 43.9905 11.063 43.4703 10.9555C43.4537 10.9499 43.4357 10.9499 43.419 10.9555C43.1796 10.9038 42.9354 10.8774 42.6905 10.8767C42.4992 10.8771 42.3085 10.8994 42.1223 10.9434C41.8289 11.0035 41.5497 11.1197 41.3002 11.2857C41.3002 11.2857 41.3002 11.3009 41.276 11.3009H41.2608C40.9091 11.514 40.6013 11.7927 40.3541 12.1219C40.069 12.5014 39.8333 12.9158 39.6528 13.355C39.641 13.3802 39.632 13.4066 39.6257 13.4338L39.5713 13.6065H48.8354L48.4878 13.358ZM42.6935 11.1251C42.8484 11.1267 43.003 11.1399 43.156 11.1645C43.2677 11.1768 43.3787 11.195 43.4885 11.2191C43.9213 11.3182 44.3457 11.4509 44.7579 11.616C44.8437 11.656 44.9314 11.6914 45.0209 11.722C45.4984 11.9341 45.9609 12.1613 46.3992 12.3976C46.4778 12.44 46.5563 12.4794 46.6349 12.5309C47.1911 12.8339 47.6686 13.1369 47.9739 13.3278H39.9551C40.1939 12.7824 41.013 11.1251 42.6935 11.1251Z" fill="#75BF43"/>
<path d="M43.1014 13.6005C43.0667 13.6002 43.0334 13.5873 43.0076 13.5641C42.9827 13.5387 42.9688 13.5044 42.9688 13.4687C42.9688 13.433 42.9827 13.3988 43.0076 13.3733L44.8907 11.4858C44.9161 11.4608 44.9503 11.4468 44.9859 11.4468C45.0215 11.4468 45.0557 11.4608 45.0811 11.4858C45.1059 11.5107 45.1197 11.5445 45.1197 11.5797C45.1197 11.6149 45.1059 11.6486 45.0811 11.6736L43.1981 13.5641C43.1716 13.588 43.137 13.601 43.1014 13.6005Z" fill="#75BF43"/>
<path d="M41.0464 13.6065C41.0289 13.6067 41.0116 13.6034 40.9955 13.5966C40.9793 13.5898 40.9647 13.5798 40.9527 13.5671C40.9279 13.5421 40.9141 13.5084 40.9141 13.4732C40.9141 13.438 40.9279 13.4042 40.9527 13.3792L43.3375 10.9858C43.3637 10.9661 43.396 10.9565 43.4287 10.9588C43.4613 10.9612 43.4921 10.9752 43.5152 10.9984C43.5384 11.0216 43.5524 11.0524 43.5547 11.0852C43.557 11.1179 43.5475 11.1504 43.5279 11.1766L41.1401 13.5671C41.1279 13.5796 41.1133 13.5896 41.0972 13.5963C41.0811 13.6031 41.0638 13.6066 41.0464 13.6065Z" fill="#75BF43"/>
<path d="M32.3744 13.4368C32.3633 13.4062 32.3542 13.3748 32.3472 13.3429C32.1838 12.9204 31.9609 12.5236 31.6853 12.1644C31.4335 11.808 31.1089 11.5096 30.7331 11.2888C30.4766 11.106 30.1821 10.9837 29.8718 10.9313C29.6929 10.8939 29.5104 10.8766 29.3277 10.8798C29.0878 10.8804 28.8487 10.9068 28.6144 10.9585C28.0699 11.0721 27.5382 11.2406 27.0276 11.4615C26.9928 11.4638 26.9599 11.4777 26.9339 11.5008C26.3656 11.7402 25.8094 12.0189 25.3198 12.2855C24.3254 12.8157 23.6 13.3217 23.5335 13.3611L23.1738 13.6126H32.45L32.3744 13.4368ZM24.0382 13.3429C24.3405 13.146 24.806 12.8521 25.3591 12.5491C25.4407 12.5067 25.5193 12.4552 25.613 12.4158C26.0551 12.1621 26.5147 11.9404 26.9882 11.7523C27.0701 11.7011 27.1586 11.6613 27.2512 11.6342C27.6702 11.4541 28.104 11.3112 28.5478 11.207C28.6557 11.197 28.7627 11.1798 28.8683 11.1555C29.0254 11.1555 29.1705 11.1282 29.3156 11.1282C29.7435 11.137 30.1631 11.249 30.5387 11.4547C30.9143 11.6603 31.2351 11.9536 31.4737 12.3098C31.7121 12.6268 31.9073 12.9742 32.054 13.3429H24.0382Z" fill="#75BF43"/>
<path d="M28.9076 13.6126C28.8902 13.6127 28.8729 13.6093 28.8568 13.6025C28.8407 13.5957 28.8261 13.5858 28.8139 13.5733L26.9248 11.6797C26.9001 11.6547 26.8862 11.6209 26.8862 11.5858C26.8862 11.5506 26.9001 11.5168 26.9248 11.4918C26.9367 11.4788 26.9512 11.4684 26.9673 11.4612C26.9835 11.4541 27.0009 11.4504 27.0185 11.4504C27.0362 11.4504 27.0535 11.4541 27.0697 11.4612C27.0858 11.4684 27.1003 11.4788 27.1122 11.4918L29.0013 13.3854C29.026 13.4104 29.0399 13.4441 29.0399 13.4793C29.0399 13.5145 29.026 13.5483 29.0013 13.5733C28.9892 13.5859 28.9747 13.596 28.9585 13.6028C28.9424 13.6095 28.9251 13.6129 28.9076 13.6126Z" fill="#75BF43"/>
<path d="M30.9812 13.5914C30.9637 13.5916 30.9464 13.5883 30.9303 13.5815C30.9142 13.5747 30.8996 13.5647 30.8875 13.552L28.5118 11.1706C28.4903 11.1451 28.4792 11.1124 28.4806 11.0791C28.482 11.0457 28.4959 11.0141 28.5195 10.9905C28.543 10.9668 28.5745 10.953 28.6078 10.9515C28.6411 10.9501 28.6737 10.9613 28.6992 10.9828L31.0749 13.3641C31.0996 13.3891 31.1135 13.4229 31.1135 13.4581C31.1135 13.4933 31.0996 13.527 31.0749 13.552C31.0627 13.5645 31.0481 13.5745 31.032 13.5812C31.0159 13.588 30.9987 13.5915 30.9812 13.5914Z" fill="#75BF43"/>
<path d="M36.1467 1.02393H35.8687V13.4761H36.1467V1.02393Z" fill="#75BF43"/>
<path d="M37.1894 2.92075L37.0564 3.05406L36.1436 3.98116L35.9985 4.12658L34.9406 3.06618L34.8076 2.93287L35.0071 2.74806L35.0736 2.81471L35.8685 3.6085L35.9985 3.74181L36.1436 3.59638L36.9385 2.79956L37.005 2.73291L37.1894 2.92075Z" fill="#75BF43"/>
<path d="M37.9843 4.56568L35.9985 6.55318L35.8686 6.41987L34.1729 4.71111L34.0278 4.56568L34.2122 4.37784L35.9985 6.16841L37.8 4.36572L37.9843 4.56568Z" fill="#75BF43"/>
<path d="M38.4859 6.15643L38.3015 6.34124L36.1434 8.50446L36.0255 8.62262L35.8683 8.46508L33.7103 6.31397L33.5259 6.12916L33.7103 5.9292L33.7616 5.98373L35.8683 8.09242L36.0255 8.24997L36.1434 8.13181L38.2471 6.011L38.3015 5.95647L38.4859 6.15643Z" fill="#75BF43"/>
<path d="M14.4476 30.388C12.8638 30.388 12.8638 27.9643 14.4476 27.9643C15.7383 27.9643 17.6213 25.7192 19.8338 25.7192C22.0463 25.7192 23.9323 27.9643 25.2199 27.9643C26.5075 27.9643 28.3936 25.7192 30.6061 25.7192C32.8186 25.7192 34.7047 27.9643 35.9923 27.9643C37.2799 27.9643 39.166 25.7192 41.3785 25.7192C43.591 25.7192 45.477 27.9643 46.7677 27.9643C48.0583 27.9643 49.9413 25.7192 52.1538 25.7192C54.3663 25.7192 56.2494 27.9643 57.54 27.9643C59.1239 27.9643 59.1239 30.388 57.54 30.388C55.3275 30.388 53.4414 28.143 52.1538 28.143C50.8662 28.143 48.9802 30.388 46.7677 30.388C44.5552 30.388 42.6691 28.143 41.3785 28.143C40.0879 28.143 38.2048 30.388 35.9923 30.388C33.7798 30.388 31.8968 28.143 30.6061 28.143C29.3155 28.143 27.4324 30.388 25.2199 30.388C23.0074 30.388 21.1244 28.143 19.8338 28.143C18.5432 28.143 16.6601 30.388 14.4476 30.388Z" fill="#0174BB"/>
<path d="M34.3967 42.6918C34.3967 42.8801 34.341 43.0642 34.2366 43.2207C34.1322 43.3772 33.9837 43.4991 33.8101 43.571C33.6365 43.6429 33.4455 43.6616 33.2613 43.6246C33.0771 43.5877 32.9081 43.4968 32.7755 43.3634C32.6429 43.2301 32.5527 43.0603 32.5164 42.8755C32.4801 42.6908 32.4994 42.4994 32.5717 42.3257C32.644 42.1519 32.7661 42.0035 32.9226 41.8993C33.079 41.7952 33.2628 41.7399 33.4507 41.7405C33.5752 41.7405 33.6984 41.7651 33.8134 41.813C33.9284 41.8608 34.0328 41.9309 34.1206 42.0193C34.2085 42.1077 34.2782 42.2126 34.3256 42.328C34.3729 42.4434 34.3971 42.567 34.3967 42.6918Z" fill="#0174BB"/>
<path d="M49.5816 47.0606L49.4788 46.9333C46.154 42.8462 42.5602 40.5891 38.7457 40.2285C38.3891 40.1952 38.0234 40.177 37.6577 40.177C33.4805 40.177 29.932 42.4463 28.188 43.8127L28.0097 43.9551L25.6763 42.6281L26.0511 42.3251C28.1034 40.5982 32.338 37.6987 37.6304 37.6987C38.0748 37.6987 38.5373 37.7199 38.9634 37.7624C43.8418 38.2168 48.3333 41.1708 52.314 46.5485L52.716 47.0939L49.5816 47.0606Z" fill="#0174BB"/>
<path fill-rule="evenodd" clip-rule="evenodd" d="M36.7118 57.8525C35.7774 57.2766 34.7014 56.9734 33.6046 56.9769C32.8087 56.9589 32.0174 57.1005 31.2769 57.3934C30.5365 57.6863 29.8618 58.1245 29.2927 58.6823C28.7235 59.2402 28.2712 59.9064 27.9625 60.6418C27.6537 61.3773 27.4946 62.1672 27.4946 62.9651C27.4946 63.763 27.6537 64.5529 27.9625 65.2884C28.2712 66.0238 28.7235 66.69 29.2927 67.2479C29.8618 67.8057 30.5365 68.2439 31.2769 68.5368C32.0174 68.8297 32.8087 68.9713 33.6046 68.9533C34.6531 68.9521 35.6833 68.6775 36.5939 68.1565C37.5041 67.6298 38.2597 66.8718 38.7845 65.9591C39.3093 65.0463 39.5848 64.011 39.5832 62.9575C39.5847 61.9322 39.321 60.924 38.8177 60.0314C38.3145 59.1387 37.5888 58.3922 36.7118 57.8646M33.6046 65.9539C33.0134 65.9539 32.4355 65.7782 31.9439 65.4489C31.4523 65.1197 31.0691 64.6517 30.8429 64.1042C30.6166 63.5567 30.5574 62.9542 30.6727 62.373C30.7881 61.7917 31.0728 61.2578 31.4909 60.8388C31.9089 60.4197 32.4415 60.1343 33.0214 60.0187C33.6013 59.9031 34.2024 59.9624 34.7486 60.1892C35.2948 60.416 35.7617 60.8001 36.0901 61.2928C36.4186 61.7856 36.5939 62.3649 36.5939 62.9575C36.5923 63.7517 36.2769 64.5129 35.7166 65.0745C35.1563 65.6361 34.3969 65.9523 33.6046 65.9539Z" fill="#0773BA"/>
<path d="M0.0602445 55.9226H0.495547C1.13685 55.9226 1.75185 55.6672 2.20532 55.2127C2.65879 54.7581 2.91358 54.1416 2.91358 53.4988H0.00585938V69.0443H2.91358V55.9256L0.0602445 55.9226Z" fill="#16BECE"/>
<path d="M8.33641 59.6339V57.4949H4.64893C4.85647 57.486 5.06025 57.5521 5.22333 57.6811C5.3864 57.8101 5.49792 57.9934 5.53754 58.1978C5.53754 58.8856 5.53754 59.6703 5.53754 60.6216V69.0412H8.32734V63.821C8.32734 60.7367 9.75396 59.6248 12.0874 59.64V57.501C10.1469 57.5283 8.86837 58.2342 8.32734 59.6218" fill="#16BECE"/>
<path d="M17.1681 59.6339V57.495H13.4775C13.6854 57.4859 13.8897 57.5519 14.0533 57.6808C14.2168 57.8098 14.3289 57.9932 14.3692 58.1979C14.3692 58.8856 14.3692 59.6703 14.3692 60.6216V69.0412H17.1681V63.821C17.1681 60.7368 18.5947 59.6249 20.9281 59.64V57.501C18.9876 57.5283 17.7091 58.2342 17.1681 59.6218" fill="#16BECE"/>
<path d="M23.334 57.4949H22.4272C22.6494 57.4806 22.8684 57.5535 23.0377 57.6984C23.207 57.8432 23.3132 58.0484 23.334 58.2706V69.0503H26.1209V57.4949H23.334Z" fill="#16BECE"/>
<path d="M26.1148 54.2258V53.8047H23.334V57.0101C24.0699 57.0101 24.7757 56.7171 25.2961 56.1955C25.8164 55.6739 26.1087 54.9665 26.1087 54.2288" fill="#16BECE"/>
<path d="M51.1473 65.9419V60.8641C51.1473 58.1374 49.5061 56.9649 46.5048 56.9497C43.0651 56.9255 41.8984 58.6494 41.7261 60.546H44.386C44.5582 59.6946 44.8635 58.9917 46.3989 58.9917C48.1188 58.9917 48.421 59.9491 48.421 60.8368V61.6337H46.6619C43.2616 61.6337 41.1851 62.8456 41.1851 65.4511C41.1851 67.2296 42.3639 69.0474 45.1144 69.0474C47.2301 69.0474 48.0523 68.196 48.4634 67.5083C48.4674 67.9338 48.5243 68.3572 48.6326 68.7687H51.2924C51.1882 67.8301 51.1397 66.8862 51.1473 65.9419ZM48.4271 63.7151C48.4271 65.4269 48.1248 67.0023 45.8609 67.0023C44.6187 67.0023 44.0081 66.2358 44.0081 65.2784C44.0081 63.9938 44.8967 63.3818 46.9339 63.3818H48.4271V63.7151Z" fill="#16BECE"/>
<path d="M71.9607 62.6304C71.9607 59.9037 70.652 56.98 66.7741 56.98C63.147 56.98 61.3335 59.6189 61.3335 63.1848C61.3335 66.1964 62.9354 69.0746 66.6683 69.0746C70.1321 69.0746 71.3895 66.872 71.8066 65.439H69.0168C68.6843 66.1964 68.2339 66.8599 66.7408 66.8599C65.0331 66.8599 64.1474 65.3602 64.1474 63.6211H71.9275C71.9613 63.2961 71.9744 62.9692 71.9668 62.6425M64.2139 61.8306C64.359 60.2127 65.0724 59.0463 66.768 59.0463C68.4637 59.0463 69.1347 60.3066 69.1619 61.8306H64.2139Z" fill="#16BECE"/>
<path d="M59.538 59.5248V57.3828H52.5317V59.5248H54.3816V65.9933C54.3816 67.9808 55.1432 69.0927 57.2379 69.0927C57.913 69.1222 58.5887 69.0486 59.2418 68.8745V66.9083C58.9709 66.9512 58.6969 66.9705 58.4227 66.9658C57.4403 66.9658 57.1714 66.5447 57.1714 65.5843V59.5248H59.538Z" fill="#16BECE"/>
<path d="M57.1685 54.1108V53.6897H54.3877V56.8921C55.1233 56.8913 55.8287 56.598 56.3489 56.0766C56.8691 55.5552 57.1616 54.8482 57.1624 54.1108" fill="#16BECE"/>
<path d="M44.5975 70.2046H41.1851C41.333 70.196 41.4786 70.2452 41.5913 70.3417C41.704 70.4383 41.775 70.5748 41.7896 70.7226V77.2032H43.1014V75.0279C43.0854 74.8806 43.0139 74.745 42.9015 74.6487C42.7892 74.5524 42.6445 74.5028 42.4969 74.5098H44.5612C45.9365 74.5098 47.0216 73.8069 47.0216 72.3345C47.0216 71.0226 46.0453 70.2137 44.6036 70.2137M44.4192 73.4494H43.1105V71.8043C43.0974 71.6548 43.0271 71.5162 42.9145 71.4174C42.8018 71.3186 42.6555 71.2672 42.5059 71.2741H44.4645C45.1658 71.2741 45.7098 71.6043 45.7098 72.3617C45.7098 73.1192 45.2201 73.4494 44.4252 73.4494" fill="#0773BA"/>
<path d="M49.8114 71.765C48.1973 71.765 47.2573 72.9193 47.2573 74.5099C47.2573 76.1005 48.1852 77.2155 49.7449 77.2155C51.374 77.2155 52.2717 76.0218 52.2717 74.4887C52.2717 72.8587 51.3075 71.762 49.8114 71.762M49.7721 76.2035C49.0044 76.2035 48.5268 75.5279 48.5268 74.4796C48.5268 73.3526 48.9923 72.7709 49.76 72.7709C50.5277 72.7709 51.0022 73.3768 51.0022 74.4948C51.0022 75.5431 50.567 76.2035 49.7721 76.2035Z" fill="#0773BA"/>
<path d="M59.0335 71.765C57.4195 71.765 56.4795 72.9193 56.4795 74.5099C56.4795 76.1005 57.4074 77.2155 58.9822 77.2155C60.5569 77.2155 61.509 76.0218 61.509 74.4887C61.509 72.8587 60.5418 71.762 59.0335 71.762M59.0063 76.2035C58.2416 76.2035 57.7641 75.5279 57.7641 74.4796C57.7641 73.3526 58.2265 72.7709 58.9942 72.7709C59.7619 72.7709 60.2395 73.3768 60.2395 74.4948C60.2395 75.5431 59.7891 76.2035 59.0063 76.2035Z" fill="#0773BA"/>
<path d="M70.0628 73.8615C69.1892 73.6494 69.017 73.5009 69.017 73.198C69.017 72.895 69.1892 72.6799 69.7454 72.6799C70.4587 72.6799 70.631 73.0768 70.6824 73.3161H71.8914C71.837 72.6011 71.2868 71.7649 69.7998 71.7649C68.3127 71.7649 67.7747 72.5466 67.7747 73.304C67.7747 74.0614 68.0769 74.5371 69.6819 74.934C70.5161 75.1339 70.7398 75.2915 70.7398 75.6763C70.7398 76.061 70.5161 76.2822 69.9056 76.2822C69.295 76.2822 68.9414 76.0156 68.8205 75.5399H67.5903C67.7082 76.467 68.3581 77.2093 69.8542 77.2093C71.3504 77.2093 72.0093 76.4549 72.0093 75.5793C72.0093 74.8219 71.7463 74.2402 70.0658 73.8554" fill="#0773BA"/>
<path d="M66.8074 75.5763V71.8921H65.5531V74.6371C65.5531 75.758 65.2509 76.1671 64.4952 76.1671C63.794 76.1671 63.6035 75.6429 63.6035 75.0309V71.8921H61.9502C62.0494 71.887 62.1469 71.9202 62.2223 71.9851C62.2977 72.05 62.3453 72.1414 62.3552 72.2405V75.2703C62.3552 76.6215 63.0837 77.1941 64.0781 77.1941C64.7914 77.1941 65.266 76.9518 65.5531 76.4125C65.5531 76.6427 65.5712 76.9336 65.5924 77.0729H66.8165C66.8165 76.6609 66.8165 76.0641 66.8165 75.5581" fill="#0773BA"/>
<path d="M54.4029 72.9738V72.0224H52.7466C52.838 72.018 52.9281 72.0459 53.001 72.1013C53.074 72.1567 53.1251 72.236 53.1456 72.3254C53.1456 72.6284 53.1456 72.9889 53.1456 73.4191V77.2063H54.3969V74.8552C54.3969 73.4676 55.0407 72.9647 56.0895 72.9738V72.0224C55.216 72.0224 54.6417 72.3496 54.3969 72.9798" fill="#0773BA"/>
<path fill-rule="evenodd" clip-rule="evenodd" d="M36.5941 71.2045V58.4312C36.6348 58.0604 36.8106 57.7176 37.0878 57.4687C37.365 57.2197 37.7241 57.082 38.0963 57.082C38.4685 57.082 38.8276 57.2197 39.1048 57.4687C39.382 57.7176 39.5578 58.0604 39.5985 58.4312V69.623V71.2348C39.5536 72.7842 38.9114 74.2559 37.807 75.3408C36.7025 76.4257 35.2217 77.0394 33.6754 77.0531C32.1291 77.0669 30.6376 76.4795 29.5142 75.4144C28.3907 74.3492 27.7227 72.8892 27.6504 71.3408C27.6504 71.3015 27.6504 71.2621 27.6504 71.2257V71.1803C27.6712 70.7944 27.8397 70.4315 28.1208 70.1672C28.402 69.9029 28.7741 69.7575 29.1595 69.7614C29.545 69.7653 29.9141 69.9182 30.1898 70.1882C30.4656 70.4582 30.6267 70.8244 30.6397 71.2106C30.6743 71.9812 31.004 72.7087 31.5603 73.2417C32.1165 73.7748 32.8564 74.0722 33.626 74.0722C34.3955 74.0722 35.1354 73.7748 35.6916 73.2417C36.2479 72.7087 36.5777 71.9812 36.6123 71.2106" fill="#16BECE"/>
</g>
<defs>
<clipPath id="clip0_130_788">
<rect width="72" height="76.4308" fill="white" transform="translate(0 0.784668)"/>
</clipPath>
</defs>
</svg>
